<svg width="171" height="36" viewBox="0 0 171 36" fill="none" xmlns="http://www.w3.org/2000/svg">
<g clip-path="url(#clip0_8_47)">
<path d="M47.8526 5.92775C49.9016 4.79265 52.3094 4.2251 55.0759 4.2251C57.2445 4.2251 59.1899 4.63499 60.912 5.46267C62.6341 6.29035 64.0214 7.4491 65.0817 8.9468C66.1421 10.4445 66.7879 12.1629 67.0191 14.0942H61.2229C60.8562 12.5728 60.1306 11.3668 59.0304 10.476C57.9302 9.58529 56.5668 9.14386 54.9164 9.14386C53.4016 9.14386 52.0861 9.51435 50.962 10.2632C49.8378 11.012 48.9767 12.0604 48.3788 13.4005C47.7808 14.7405 47.4779 16.2776 47.4779 18.0039C47.4779 20.6604 48.1396 22.8045 49.4551 24.4283C50.7706 26.0521 52.5964 26.864 54.9164 26.864C56.6146 26.864 58.1135 26.4068 59.4211 25.4924C60.7286 24.5781 61.5099 23.2301 61.773 21.4487V21.1018H54.9643V16.4984H67.2184V31.5542H63.1443L62.5145 28.1883C61.7093 29.2446 60.625 30.1117 59.2616 30.7817C57.9062 31.4517 56.3276 31.7907 54.5258 31.7907C51.9426 31.7907 49.6624 31.2231 47.6931 30.088C45.7238 28.9529 44.1931 27.337 43.1088 25.2481C42.0245 23.1592 41.4823 20.7471 41.4823 18.0118C41.4823 15.2766 42.0325 12.8329 43.1247 10.7519C44.225 8.6709 45.7956 7.07073 47.8446 5.93563L47.8526 5.92775Z" fill="#06DF72"/>
<path d="M88.2586 5.55718C89.7575 6.29027 90.9215 7.34654 91.7427 8.71024C92.5639 10.0739 92.9785 11.6662 92.9785 13.4713C92.9785 15.2765 92.5639 16.8609 91.7427 18.2167C90.9215 19.5725 89.7575 20.613 88.2586 21.354C86.7597 22.0871 85.0296 22.4576 83.0683 22.4576H77.7824V31.5541H71.9064V4.45361H83.0683C85.0296 4.45361 86.7517 4.8241 88.2586 5.55718ZM82.5262 17.6176C83.9055 17.6176 85.0057 17.2471 85.8109 16.4983C86.6162 15.7494 87.0228 14.7405 87.0228 13.4792C87.0228 12.218 86.6162 11.1696 85.8109 10.4208C85.0057 9.67192 83.9055 9.30143 82.5262 9.30143H77.7903V17.6255H82.5262V17.6176Z" fill="#06DF72"/>
<path d="M116.466 4.45361V9.44332H108.557V31.5462H102.681V9.44332H94.7723V4.45361H116.458H116.466Z" fill="#06DF72"/>
<path d="M115.757 18.3507H129.462V22.765H115.757V18.3507Z" fill="#06DF72"/>
<path d="M139.252 4.45361V31.5462H133.376V4.45361H139.252Z" fill="#06DF72"/>
<path d="M171 31.5463H168.178C167.077 31.5463 166.224 31.4044 165.61 31.1206C164.996 30.8368 164.43 30.3718 163.904 29.7254C161.736 31.0891 159.232 31.7749 156.386 31.7749C153.747 31.7749 151.403 31.1837 149.338 29.9934C147.273 28.8031 145.67 27.1635 144.522 25.0589C143.374 22.9542 142.8 20.5973 142.8 17.996C142.8 15.3947 143.374 13.0378 144.522 10.9332C145.67 8.82851 147.273 7.18103 149.338 5.99864C151.403 4.81624 153.747 4.21716 156.386 4.21716C159.025 4.21716 161.369 4.80836 163.434 5.99864C165.499 7.18892 167.101 8.82851 168.249 10.9332C169.397 13.0378 169.971 15.3947 169.971 17.996C169.971 21.22 169.11 24.0341 167.388 26.4383C167.651 26.5644 167.946 26.6354 168.289 26.6354H170.992V31.5541L171 31.5463ZM152.4 25.721C153.548 26.4856 154.879 26.864 156.394 26.864C157.909 26.864 159.36 26.4383 160.58 25.587L160.189 25.1219C159.878 24.712 159.575 24.4046 159.288 24.2154C159.001 24.0183 158.65 23.9238 158.228 23.9238H155.684V19.005H158.658C159.703 19.005 160.5 19.1626 161.05 19.4701C161.6 19.7775 162.142 20.282 162.692 20.9835L163.322 21.7954C163.737 20.6603 163.952 19.3991 163.952 18.0039C163.952 16.3012 163.641 14.7799 163.011 13.4398C162.381 12.0998 161.496 11.0435 160.348 10.2868C159.2 9.52218 157.885 9.14381 156.394 9.14381C154.903 9.14381 153.548 9.52218 152.4 10.2868C151.251 11.0514 150.366 12.0998 149.737 13.4398C149.107 14.7799 148.796 16.3012 148.796 18.0039C148.796 19.7065 149.107 21.2279 149.737 22.5679C150.366 23.908 151.251 24.9643 152.4 25.721Z" fill="#06DF72"/>
<path d="M2.15287 0V1.87607L2.78272 1.81301V0H3.6677V1.87607C3.85905 1.8603 4.1062 1.94701 4.23377 1.78148V0H5.11874V1.87607H5.68481V0H6.63357V1.87607H7.19964V0H8.08461V1.87607H8.65068V0H9.59944V5.16313C9.59944 5.21831 9.82268 5.4942 9.86254 5.58879C10.6598 7.51215 10.9548 9.90847 11.5607 11.9264C11.5847 12.021 11.5209 12.0368 11.6883 12.021C12.1667 8.11123 13.9047 4.83206 17.7556 3.33436C21.2158 1.98642 26.8525 2.53033 30.6635 2.50668C32.569 2.4988 34.8652 2.2702 36.7467 2.43573C37.7274 2.52244 37.3447 3.37377 37.0816 3.96497C36.7946 4.59558 36.2684 5.38384 35.7262 5.81739C35.5109 5.9908 34.8731 6.27458 34.7775 6.38494C34.6738 6.50318 34.4745 7.26779 34.315 7.55157C34.02 8.0797 33.5815 8.56843 33.0553 8.87585C32.856 8.98621 32.3059 9.17539 32.2102 9.29363C32.0906 9.43552 31.9312 10.0425 31.7797 10.3105C31.1578 11.3983 29.8822 12.155 28.6145 12.155C28.1999 13.7237 26.9163 14.7642 25.3138 14.9928C24.9311 16.3959 23.7511 17.5389 22.2761 17.7202L23.5279 17.9488C25.3536 18.3035 26.8764 19.4465 27.7136 21.0782C28.3913 22.3946 29.0689 25.7447 30.4323 26.3438C31.4448 26.7931 32.3936 26.1073 32.3298 25.0353C32.266 23.8923 30.3207 22.1344 29.5952 21.157C28.5906 19.8012 27.7933 18.2404 28.4471 16.5299C29.5633 13.6133 34.2991 14.2755 33.8446 17.5467C33.7011 18.5636 32.569 19.6278 33.9244 20.5658C35.487 21.6457 34.5223 19.005 34.4904 18.5005C34.4665 18.1222 34.5781 17.7832 34.5542 17.4049L35.5269 18.7843C36.5793 20.4081 35.5269 22.7966 33.3663 21.6694C32.0029 20.9599 31.7159 19.4938 32.2182 18.1379C32.3218 17.8699 32.553 17.5862 32.5849 17.3103C32.7843 15.718 30.5678 15.2529 29.7227 16.7348C28.3753 19.1154 31.8754 21.5827 33.0155 23.3326C34.9289 26.2649 31.5644 29.0633 29.1327 26.8561C28.8218 26.5803 28.6304 26.2098 28.3434 25.9181C28.3594 26.6591 28.7899 27.4158 29.3241 27.9203C29.8583 28.4248 30.7911 28.6613 30.9186 29.4101C30.8309 31.3965 31.0462 33.6352 30.8708 35.598C30.8628 35.732 30.8309 36 30.6476 36H25.1703C25.3058 34.5338 26.0313 33.1386 27.7056 33.1544C27.8651 32.6578 27.7295 32.0035 27.5063 31.5305C27.283 31.0576 26.9163 30.8526 26.4778 30.6004C25.553 30.0644 24.5006 29.6229 23.5518 29.1106C23.5598 29.891 24.3969 30.5295 24.1737 31.3571L21.1759 36H16.3604C16.6235 34.6994 17.0938 33.3278 18.6246 33.1386C18.792 33.115 18.8558 33.2411 19.0551 33.1307C19.4777 32.8864 20.1953 31.499 20.2192 31.0182C20.2431 30.4506 19.4299 29.8279 19.087 29.3944C18.5449 28.7322 18.0904 27.9991 17.8513 27.1714C15.8421 27.9755 13.7931 28.3144 11.6166 28.1725L11.3614 36H6.29871C6.29074 34.66 6.76911 33.3908 8.26002 33.178L7.40693 30.6792L5.03104 36H0.374944C0.374944 34.9201 0.606154 33.6667 1.77018 33.2805C2.12098 33.1623 2.75083 33.2647 2.89434 33.0204C3.56405 30.8605 4.14606 28.677 4.5447 26.4541C4.22579 25.9733 3.90688 25.4452 3.72351 24.8934C3.56405 24.3968 3.51622 23.8923 3.41257 23.3878C2.52759 23.2144 0.733719 23.7504 0.303189 22.702C0.0400878 22.0714 0.351026 20.3924 0.438726 19.6356C0.741692 17.0659 1.20411 14.5198 1.50708 11.958H0.406835C0.000223914 11.958 -0.0236944 11.3589 0.0161694 11.0672C0.167652 9.94 1.04466 8.46595 1.26789 7.29144V0H2.15287ZM8.6746 4.50887V3.03482C8.6746 3.03482 8.53109 2.8141 8.51514 2.8141H2.08909V4.35122C2.08909 4.35122 2.2326 4.50887 2.24855 4.50887H8.6746ZM11.6484 25.7683C11.7122 26.0758 11.6006 26.5881 11.6484 26.9271C12.9321 26.935 14.1359 26.9901 15.3956 26.7221C17.2134 26.3359 18.9435 25.4452 20.7613 25.0431L20.7055 23.6716L21.3991 23.7346C21.6304 25.4846 22.5632 27.0059 24.0302 27.9912C25.2261 28.7953 27.7933 29.6229 28.4152 30.8526C28.8138 31.633 29.1806 33.5879 28.2238 34.0688C27.9528 34.2028 27.7056 34.1555 27.4266 34.2185C26.9402 34.3289 26.6771 34.6284 26.4698 35.0541H29.8264V29.8279C29.8264 29.5441 28.8457 29.016 28.5906 28.7953C26.5177 26.9823 27.5302 24.5465 26.7967 22.2369C26.0632 19.9273 23.9584 18.7528 21.5028 18.9814C20.7454 19.9588 19.7408 20.5422 18.4811 20.6289C18.0586 21.6615 17.5005 22.4892 16.4082 22.8991C16.2089 22.9779 15.595 23.1671 15.4116 23.1671H10.3808V22.0399H12.0551C12.5414 22.0399 13.1553 21.3462 13.0995 20.8496L11.8956 20.8811L11.8318 19.8485H14.0801C14.6303 19.8485 15.3717 18.9735 15.0608 18.406H13.9207V17.3418H15.5392C15.9059 17.3418 16.6155 16.8688 16.6952 16.4826C16.7271 16.3092 16.6952 15.8362 16.4879 15.8362H15.4435V14.7721H16.8068C17.2374 14.7721 18.0586 14.307 18.1542 13.8498C18.1941 13.6764 18.1542 13.2034 17.9469 13.2034H16.7112V12.0762C17.5563 12.155 19.0791 12.2496 19.2943 11.1539C19.3262 11.0042 19.2465 10.5154 19.087 10.5154H17.7875V9.38822H19.1508C19.7807 9.38822 20.5301 8.3083 20.0996 7.75651H18.8638V6.69236H19.9082C20.0119 6.69236 20.5062 6.582 20.6338 6.53471C21.1121 6.36129 21.4789 5.80162 21.3354 5.3129H34.1635C34.2114 5.3129 34.6419 5.10007 34.7216 5.05277C35.1522 4.79264 35.495 4.31968 35.7103 3.87037H21.742C18.9037 3.98861 16.0255 5.21831 14.4708 7.63039C13.0118 9.88483 13.243 12.6122 12.2305 14.9928C11.2179 17.3733 9.47188 18.7843 6.72127 18.406C6.48209 19.6514 6.4502 20.9284 6.25885 22.1739C6.21899 22.4576 6.17912 23.0961 5.94791 23.2459C5.7167 23.3957 4.67227 23.3563 4.62443 23.4035C4.79186 24.8934 5.70873 26.0679 6.77708 27.069C7.0641 27.337 7.47071 27.5183 7.678 27.873C8.04475 29.4259 8.97757 31.097 9.34431 32.6105C9.45593 33.0519 9.43201 33.4776 9.15297 33.8559C8.71446 34.4471 7.54247 34.0924 7.54247 35.1093L10.3967 35.0462C10.4127 34.2658 10.3808 33.4776 10.3967 32.6972C10.4286 31.1443 10.5402 29.5599 10.5881 28.007C10.604 27.471 10.4764 25.8866 10.7077 25.5161C10.9229 25.1693 11.5847 25.3979 11.6644 25.7526L11.6484 25.7683ZM2.15287 6.70024H6.10737C7.55044 6.70024 8.85 7.74075 8.98554 9.17539C9.23269 11.7294 8.92973 14.4804 9.04932 17.0659C9.05729 17.1447 9.01743 17.1841 9.14499 17.1605C9.30445 17.129 9.96619 16.727 9.99808 16.5614C10.0858 16.1279 10.014 15.0085 9.99808 14.4962C9.96619 12.423 10.0379 10.4287 9.57552 8.40289C9.36026 7.47274 9.08918 6.55835 8.82608 5.64397L8.6746 5.48632L2.51165 5.46267L2.09706 5.62032L2.15287 6.70812V6.70024ZM33.3742 6.70024H22.1964C21.9732 7.11802 21.7818 7.40968 21.2796 7.52004L21.3433 8.20582L24.9789 8.14276C27.0518 7.96146 29.6111 8.40289 31.6282 8.14276C32.3139 8.05605 33.1191 7.33085 33.3742 6.70812V6.70024ZM1.17222 11.083C1.33965 11.1303 1.95355 11.083 2.18476 11.083C2.55948 11.083 2.47178 11.8397 2.47178 12.0841H4.78389C5.18253 12.0841 5.72467 11.2958 5.86021 10.9569C6.29871 9.87694 6.13129 8.82067 5.95588 7.70922H2.09706L1.08452 10.9411C1.0606 10.9884 1.14033 11.0751 1.17222 11.083ZM8.03678 17.4679C8.09259 17.1053 7.98097 16.7191 7.973 16.3722C7.90921 14.1493 8.19623 11.5008 7.973 9.35669C7.90921 8.77337 7.51855 8.261 6.99235 8.00876C6.99235 8.51325 7.12788 9.0335 7.1518 9.53799C7.2395 11.2485 7.11991 13.3217 7.02424 15.048C6.99235 15.647 6.79303 16.4905 6.83289 17.058C6.84086 17.2157 6.94451 17.46 7.11991 17.46H8.03678V17.4679ZM30.7751 9.51434H20.8969C20.8969 9.51434 20.8012 9.7587 20.7055 9.86118C20.5939 9.97942 20.4424 10.0188 20.3228 10.1213L20.3866 11.0199H28.9653C28.9653 11.0199 29.5314 10.815 29.6111 10.7834C30.0895 10.5549 30.6236 10.0425 30.7751 9.52223V9.51434ZM27.2272 12.3363H19.9481C19.9481 12.3363 19.8923 12.5334 19.7886 12.6516C19.6372 12.8329 19.4378 12.8645 19.2784 13.0221L19.2465 13.834H25.3616C25.4653 13.834 25.9197 13.637 26.0473 13.5739C26.5735 13.3138 26.9801 12.8566 27.2272 12.3284V12.3363ZM6.13926 12.3994C5.54927 12.6201 5.50941 12.7935 5.44563 13.369C5.19847 15.4815 4.99915 17.6335 4.81578 19.7539C4.752 20.4949 4.6324 21.4092 4.64038 22.1344C4.64038 22.1896 4.6643 22.3079 4.70416 22.3394L5.32604 22.4182L6.14723 12.3994H6.13926ZM2.97407 13.0852H2.34422C2.10504 14.8351 1.80207 16.5772 1.58681 18.3192C1.47519 19.2652 1.31573 20.3136 1.25992 21.2516C1.25195 21.4408 1.22006 22.1108 1.26789 22.2448C1.3237 22.4025 1.73829 22.4182 1.88977 22.4103L2.96609 13.0773L2.97407 13.0852ZM4.56065 13.1482L3.9308 13.0852C3.95472 13.2271 3.89094 13.3611 3.87499 13.503C3.54811 15.9623 3.1096 18.7449 2.98204 21.1964C2.97407 21.4014 2.94218 22.1108 2.99001 22.2527C3.04582 22.4103 3.46041 22.434 3.61189 22.4182L4.56065 13.1482ZM23.9345 15.1504H18.6485C18.6007 15.1504 17.9868 15.6313 17.8194 15.647C17.8353 15.9939 17.8592 16.2461 17.7237 16.5851C18.8558 16.5851 19.988 16.5851 21.1121 16.5851C21.2636 16.5851 21.3991 16.656 21.5506 16.656C22.5472 16.6639 23.5677 16.0727 23.9265 15.1504H23.9345ZM16.1451 19.4071C16.9344 19.2809 17.7715 19.4701 18.5848 19.4071C19.5176 19.3361 20.2431 18.7764 20.7055 17.9961L19.7886 17.9015C18.9834 18.0039 17.8353 17.7675 17.0779 17.9172C16.8467 17.9645 16.5676 18.2325 16.2806 18.2247C16.2966 18.6424 16.2647 19.005 16.1451 19.4071ZM13.8011 22.0399H15.3558C15.4116 22.0399 15.7624 21.9295 15.8501 21.898C16.4799 21.693 16.9663 21.2674 17.2294 20.6604C16.6872 20.6604 16.1531 20.6604 15.6109 20.6604C15.4754 20.6604 15.3478 20.5894 15.2362 20.5973C14.997 20.6131 14.6063 20.9678 14.2555 20.8496L13.8011 22.032V22.0399ZM20.5779 35.062L23.0495 31.0182C22.9299 30.5137 22.6349 30.0723 22.4914 29.5599C22.3798 29.1579 22.3559 28.409 22.2363 28.1252C22.1725 27.9755 21.5745 27.3527 21.4071 27.1242C21.3035 26.9823 21.136 26.6118 21.0483 26.5408C20.7215 26.2728 19.5176 26.7458 19.1428 26.9113C19.0791 26.9429 19.0392 26.8719 19.0551 27.0059C19.087 27.2424 19.5734 28.0385 19.7408 28.275C20.5939 29.5126 21.7499 29.9304 21.2158 31.704C20.9766 32.4922 20.1713 33.9032 19.3262 34.1555C18.7203 34.3368 18.4094 34.053 17.9549 34.6757C17.8832 34.7782 17.7955 34.9201 17.7955 35.0462H20.5859L20.5779 35.062ZM1.73829 35.062C2.50367 34.9595 3.48433 35.1408 4.27363 35.062L6.83289 29.016C6.92059 28.3696 5.86818 27.8809 5.44563 27.4868C5.34995 28.3223 5.13469 29.1342 4.91942 29.9461C4.72808 30.695 4.04242 33.4224 3.64378 33.8796C3.22122 34.3604 2.82259 34.1161 2.31233 34.1949C1.9695 34.2501 1.57883 34.7782 1.64261 35.1329C1.66653 35.1644 1.72234 35.0699 1.73829 35.0699V35.062Z" fill="#06DF72"/>
<path d="M5.30987 8.77335C5.39757 8.91524 5.24609 9.20689 5.08663 9.25419C4.83948 9.32513 4.51259 9.08865 4.24949 9.13595C4.29733 10.4602 2.90209 10.2001 2.98182 9.00983L2.50346 9.1123C1.94536 8.33192 3.4283 8.3398 3.89869 8.37922C4.09801 8.39498 5.24609 8.65511 5.31784 8.76547L5.30987 8.77335Z" fill="#06DF72"/>
</g>
<defs>
<clipPath id="clip0_8_47">
<rect width="171" height="36" fill="white"/>
</clipPath>
</defs>
</svg>
